<?xml version="1.0" encoding="utf-8"?>
<!-- Generator: Adobe Illustrator 27.8.1, SVG Export Plug-In . SVG Version: 6.00 Build 0)  -->
<svg version="1.1" id="_x32_" xmlns="http://www.w3.org/2000/svg" xmlns:xlink="http://www.w3.org/1999/xlink" x="0px" y="0px"
	 viewBox="0 0 344.2 435.8" style="enable-background:new 0 0 344.2 435.8;" xml:space="preserve">
<g>
	<rect x="74.9" y="335.5" width="194.4" height="18.6" fill="rgb(175, 187, 198)"/>
	<rect x="74.9" y="260.2" width="194.4" height="18.5" fill="rgb(175, 187, 198)"/>
	<rect x="74.9" y="184.9" width="194.4" height="18.6" fill="rgb(175, 187, 198)"/>
	<rect x="74.9" y="109.6" width="91.6" height="18.6" fill="rgb(175, 187, 198)"/>
	<path d="M0,396.2V39.6c0-2.3,0.2-4.6,0.6-6.8C3.8,14.2,20.1,0,39.7,0h160.8c11.6,0,22.6,4.6,30.7,12.7L331.5,113
		c8.2,8.2,12.7,19.2,12.7,30.8v252.4c0,21.8-17.8,39.6-39.7,39.6H39.7C17.8,435.8,0,418,0,396.2z M214.5,27.5v89.1
		c0,9.7,3.7,13.4,13.3,13.4h89.1L214.5,27.5z M321.9,396.2V149.8h-106c-3.5,0-6.8-0.9-9.7-2.4c-4.1-2-7.4-5.3-9.3-9.3
		c-1.5-2.9-2.3-6.1-2.3-9.5V22.3h-155c-7.2,0-13.3,4.3-16,10.6c-0.9,2.1-1.4,4.3-1.4,6.8v356.6c0,9.5,7.7,17.3,17.3,17.3h264.9
		C314.1,413.5,321.9,405.7,321.9,396.2z" fill="rgb(175, 187, 198)"/>
</g>
</svg>
