<?xml version="1.0" encoding="utf-8"?>
<!-- Generator: Adobe Illustrator 27.8.1, SVG Export Plug-In . SVG Version: 6.00 Build 0)  -->
<svg version="1.1" id="_x32_" xmlns="http://www.w3.org/2000/svg" xmlns:xlink="http://www.w3.org/1999/xlink" x="0px" y="0px"
	 viewBox="0 0 512 512" style="enable-background:new 0 0 512 512;" xml:space="preserve">
<g>
	<rect x="201.8" y="335.5" width="194.4" height="18.6" fill="rgb(175, 187, 198)"/>
	<rect x="201.8" y="260.2" width="194.4" height="18.5" fill="rgb(175, 187, 198)"/>
	<rect x="201.8" y="184.9" width="194.4" height="18.6" fill="rgb(175, 187, 198)"/>
	<rect x="201.8" y="109.6" width="91.6" height="18.6" fill="rgb(175, 187, 198)"/>
	<path d="M126.9,396.2V39.6c0-2.3,0.2-4.6,0.6-6.8C130.7,14.2,147,0,166.6,0h160.8c11.6,0,22.6,4.6,30.7,12.7L458.4,113
		c8.2,8.2,12.7,19.2,12.7,30.8v252.4c0,21.8-17.8,39.6-39.7,39.6H166.6C144.7,435.8,126.9,418,126.9,396.2z M341.4,27.5v89.1
		c0,9.7,3.7,13.4,13.3,13.4h89.1L341.4,27.5z M448.8,396.2V149.8h-106c-3.5,0-6.8-0.9-9.7-2.4c-4.1-2-7.4-5.3-9.3-9.3
		c-1.5-2.9-2.3-6.1-2.3-9.5V22.3h-155c-7.2,0-13.3,4.3-16,10.6c-0.9,2.1-1.4,4.3-1.4,6.8v356.6c0,9.5,7.7,17.3,17.3,17.3h264.9
		C441,413.5,448.8,405.7,448.8,396.2z" fill="rgb(175, 187, 198)"/>
	<path d="M80.5,76.2h26.7l-1.4,22.3H80.5c-9.6,0-17.3,7.7-17.3,17.3v356.6c0,9.5,7.8,17.3,17.3,17.3h264.9c7.2,0,13.3-4.4,16-10.6
		c0.8-2.1,1.4-4.3,1.4-6.8v-15.5h22.3v15.5c0,2.3-0.2,4.6-0.6,6.8c-3.2,18.6-19.5,32.8-39,32.8H80.5c-21.9,0-39.6-17.8-39.6-39.6
		V115.8C40.9,93.9,58.6,76.2,80.5,76.2z" fill="rgb(175, 187, 198)"/>
</g>
</svg>
